<svg class="setupfig" viewBox="0 0 520 250" width="100%" role="img" aria-label="a reveal martingale and its live increment">
<line x1="50" y1="208" x2="506" y2="208" stroke="#333" stroke-width="1.2"/>
<line x1="50" y1="208" x2="50" y2="12" stroke="#333" stroke-width="1.2"/>
<line x1="50" y1="208" x2="50" y2="212" stroke="#333" stroke-width="1"/>
<text x="50" y="224" font-size="11" text-anchor="middle" fill="#333">0</text>
<line x1="107" y1="208" x2="107" y2="212" stroke="#333" stroke-width="1"/>
<text x="107" y="224" font-size="11" text-anchor="middle" fill="#333">1</text>
<line x1="164" y1="208" x2="164" y2="212" stroke="#333" stroke-width="1"/>
<text x="164" y="224" font-size="11" text-anchor="middle" fill="#333">2</text>
<line x1="221" y1="208" x2="221" y2="212" stroke="#333" stroke-width="1"/>
<text x="221" y="224" font-size="11" text-anchor="middle" fill="#333">3</text>
<line x1="278" y1="208" x2="278" y2="212" stroke="#333" stroke-width="1"/>
<text x="278" y="224" font-size="11" text-anchor="middle" fill="#333">4</text>
<line x1="335" y1="208" x2="335" y2="212" stroke="#333" stroke-width="1"/>
<text x="335" y="224" font-size="11" text-anchor="middle" fill="#333">5</text>
<line x1="392" y1="208" x2="392" y2="212" stroke="#333" stroke-width="1"/>
<text x="392" y="224" font-size="11" text-anchor="middle" fill="#333">6</text>
<line x1="449" y1="208" x2="449" y2="212" stroke="#333" stroke-width="1"/>
<text x="449" y="224" font-size="11" text-anchor="middle" fill="#333">7</text>
<line x1="506" y1="208" x2="506" y2="212" stroke="#333" stroke-width="1"/>
<text x="506" y="224" font-size="11" text-anchor="middle" fill="#333">8</text>
<line x1="46" y1="208" x2="50" y2="208" stroke="#333" stroke-width="1"/>
<text x="43" y="212" font-size="11" text-anchor="end" fill="#333">0</text>
<line x1="46" y1="110" x2="50" y2="110" stroke="#333" stroke-width="1"/>
<text x="43" y="114" font-size="11" text-anchor="end" fill="#333">0.5</text>
<line x1="46" y1="12" x2="50" y2="12" stroke="#333" stroke-width="1"/>
<text x="43" y="16" font-size="11" text-anchor="end" fill="#333">1</text>
<text x="506" y="236" font-size="12" text-anchor="end" fill="#333">questions revealed j</text>
<polyline points="50,107.75 107,108.12 164,113.84 221,110.31 278,99.41 335,100.98 392,91.64 449,85.38 506,59.92" fill="none" stroke="#2e6da4" stroke-width="2.2"/>
<circle cx="50" cy="107.75" r="3" fill="#2e6da4"/>
<circle cx="107" cy="108.12" r="3" fill="#2e6da4"/>
<circle cx="164" cy="113.84" r="3" fill="#2e6da4"/>
<circle cx="221" cy="110.31" r="3" fill="#2e6da4"/>
<circle cx="278" cy="99.41" r="3" fill="#2e6da4"/>
<circle cx="335" cy="100.98" r="3" fill="#2e6da4"/>
<circle cx="392" cy="91.64" r="3" fill="#2e6da4"/>
<circle cx="449" cy="85.38" r="3" fill="#2e6da4"/>
<circle cx="506" cy="59.92" r="3" fill="#2e6da4"/>
<line x1="278" y1="208" x2="278" y2="12" stroke="#888" stroke-width="1.0" stroke-dasharray="4 3"/>
<line x1="335" y1="208" x2="335" y2="12" stroke="#888" stroke-width="1.0" stroke-dasharray="4 3"/>
<line x1="278" y1="99.41" x2="278" y2="100.98" stroke="#c0392b" stroke-width="3"/>
<text x="349.25" y="176.64" font-size="11.5" text-anchor="start" fill="#c0392b">live step k: the</text>
<text x="349.25" y="190.36" font-size="11.5" text-anchor="start" fill="#c0392b">increment we must bound</text>
<text x="58.55" y="25.72" font-size="12" text-anchor="start" fill="#2e6da4">the prediction E[F | first j reveals]</text>
<text x="58.55" y="39.44" font-size="12" text-anchor="start" fill="#2e6da4">is a Doob martingale</text>
<circle cx="50" cy="107.75" r="6" fill="#b06a00" opacity="0.9"><animate attributeName="cx" values="50;107;164;221;278;335;392;449;506" dur="8s" repeatCount="indefinite"/><animate attributeName="cy" values="107.75;108.12;113.84;110.31;99.41;100.98;91.64;85.38;59.92" dur="8s" repeatCount="indefinite"/></circle>
</svg>