<svg class="setupfig" viewBox="0 0 500 250" width="100%" role="img" aria-label="shape of polynomial versus exponential decay">
<line x1="56" y1="210" x2="486" y2="210" stroke="#333" stroke-width="1.2"/>
<line x1="56" y1="210" x2="56" y2="12" stroke="#333" stroke-width="1.2"/>
<line x1="56" y1="210" x2="56" y2="214" stroke="#333" stroke-width="1"/>
<text x="56" y="226" font-size="11" text-anchor="middle" fill="#333">1</text>
<line x1="194.47" y1="210" x2="194.47" y2="214" stroke="#333" stroke-width="1"/>
<text x="194.47" y="226" font-size="11" text-anchor="middle" fill="#333">20</text>
<line x1="340.24" y1="210" x2="340.24" y2="214" stroke="#333" stroke-width="1"/>
<text x="340.24" y="226" font-size="11" text-anchor="middle" fill="#333">40</text>
<line x1="486" y1="210" x2="486" y2="214" stroke="#333" stroke-width="1"/>
<text x="486" y="226" font-size="11" text-anchor="middle" fill="#333">60</text>
<line x1="52" y1="16.68" x2="56" y2="16.68" stroke="#333" stroke-width="1"/>
<text x="49" y="20.68" font-size="11" text-anchor="end" fill="#333">0</text>
<line x1="52" y1="79.04" x2="56" y2="79.04" stroke="#333" stroke-width="1"/>
<text x="49" y="83.04" font-size="11" text-anchor="end" fill="#333">-2</text>
<line x1="52" y1="141.4" x2="56" y2="141.4" stroke="#333" stroke-width="1"/>
<text x="49" y="145.4" font-size="11" text-anchor="end" fill="#333">-4</text>
<line x1="52" y1="203.76" x2="56" y2="203.76" stroke="#333" stroke-width="1"/>
<text x="49" y="207.76" font-size="11" text-anchor="end" fill="#333">-6</text>
<text x="486" y="238" font-size="12" text-anchor="end" fill="#333">number of copies n</text>
<polyline points="56,22.42 61.38,26.73 66.75,21.13 72.12,16.68 77.5,16.68 82.88,16.68 88.25,16.68 93.62,16.68 99,16.68 104.38,16.68 109.75,16.68 115.12,16.68 120.5,16.68 125.88,16.68 131.25,16.68 136.62,16.68 142,16.68 147.38,16.68 152.75,16.68 158.12,16.68 163.5,16.68 168.88,16.68 174.25,16.68 179.62,16.68 185,16.68 190.38,16.68 195.75,16.68 201.12,16.68 206.5,16.68 211.88,16.68 217.25,16.68 222.62,16.68 228,16.68 233.38,16.68 238.75,16.68 244.12,16.68 249.5,16.68 254.88,16.68 260.25,16.68 265.62,16.68 271,16.68 276.38,16.68 281.75,16.68 287.12,16.68 292.5,16.68 297.88,16.68 303.25,16.68 308.62,16.68 314,16.68 319.38,16.68 324.75,16.68 330.12,16.68 335.5,16.68 340.88,16.68 346.25,16.68 351.62,16.68 357,16.68 362.38,16.68 367.75,16.68 373.12,16.68 378.5,16.68 383.88,16.68 389.25,16.68 394.62,16.68 400,16.68 405.38,16.68 410.75,16.68 416.12,16.68 421.5,16.68 426.88,16.68 432.25,16.68 437.62,16.68 443,16.68 448.38,16.68 453.75,16.68 459.12,16.68 464.5,16.68 469.88,16.68 475.25,16.68 480.62,16.68 486,16.68" fill="none" stroke="#b06a00" stroke-width="2.2"/>
<polyline points="56,19.8 271,111.78 486,203.76" fill="none" stroke="#c0392b" stroke-width="2.2"/>
<text x="66.93" y="185.06" font-size="11" text-anchor="start" fill="#333">vertical axis: log of the bound on ω*(G<tspan baseline-shift="super" font-size="70%">⊗n</tspan>)</text>
<text x="296.51" y="58.77" font-size="11.5" text-anchor="start" fill="#b06a00">polynomial (Yuen 2016):</text>
<text x="296.51" y="74.36" font-size="11.5" text-anchor="start" fill="#b06a00">log-bound flattens</text>
<text x="107.02" y="124.25" font-size="11.5" text-anchor="start" fill="#c0392b">exponential (Thm 1.1):</text>
<text x="107.02" y="139.84" font-size="11.5" text-anchor="start" fill="#c0392b">log-bound is a straight line</text>
</svg>