<svg class="setupfig" viewBox="0 0 540 182" width="100%" role="img" aria-label="the reveal pattern of the history">
<text x="20" y="58" font-size="12" text-anchor="start" fill="#2e6da4" font-weight="bold">Alice</text>
<text x="20" y="108" font-size="12" text-anchor="start" fill="#c0392b" font-weight="bold">Bob</text>
<rect x="72" y="40" width="33" height="32" rx="4" fill="#e8f0e8" stroke="#2a7d2a" stroke-width="1.2"/>
<text x="88.5" y="61" font-size="12" text-anchor="middle" fill="#333">✓</text>
<rect x="72" y="90" width="33" height="32" rx="4" fill="#e8f0e8" stroke="#2a7d2a" stroke-width="1.2"/>
<text x="88.5" y="111" font-size="12" text-anchor="middle" fill="#333">✓</text>
<text x="88.5" y="30" font-size="10" text-anchor="middle" fill="#555">1</text>
<rect x="110" y="40" width="33" height="32" rx="4" fill="#e8f0e8" stroke="#2a7d2a" stroke-width="1.2"/>
<text x="126.5" y="61" font-size="12" text-anchor="middle" fill="#333">✓</text>
<rect x="110" y="90" width="33" height="32" rx="4" fill="#fff" stroke="#bbb" stroke-width="1.2"/>
<text x="126.5" y="111" font-size="12" text-anchor="middle" fill="#555">?</text>
<text x="126.5" y="30" font-size="10" text-anchor="middle" fill="#555">2</text>
<rect x="148" y="40" width="33" height="32" rx="4" fill="#fdeeee" stroke="#c0392b" stroke-width="1.2"/>
<text x="164.5" y="61" font-size="12" text-anchor="middle" fill="#333">✓</text>
<rect x="148" y="90" width="33" height="32" rx="4" fill="#fdeeee" stroke="#c0392b" stroke-width="1.2"/>
<text x="164.5" y="111" font-size="12" text-anchor="middle" fill="#333">✓</text>
<text x="164.5" y="30" font-size="10" text-anchor="middle" fill="#555">3</text>
<rect x="186" y="40" width="33" height="32" rx="4" fill="#e8f0e8" stroke="#2a7d2a" stroke-width="1.2"/>
<text x="202.5" y="61" font-size="12" text-anchor="middle" fill="#333">✓</text>
<rect x="186" y="90" width="33" height="32" rx="4" fill="#fff" stroke="#bbb" stroke-width="1.2"/>
<text x="202.5" y="111" font-size="12" text-anchor="middle" fill="#555">?</text>
<text x="202.5" y="30" font-size="10" text-anchor="middle" fill="#555">4</text>
<rect x="224" y="40" width="33" height="32" rx="4" fill="#fff" stroke="#bbb" stroke-width="1.2"/>
<text x="240.5" y="61" font-size="12" text-anchor="middle" fill="#555">?</text>
<rect x="224" y="90" width="33" height="32" rx="4" fill="#e8f0e8" stroke="#2a7d2a" stroke-width="1.2"/>
<text x="240.5" y="111" font-size="12" text-anchor="middle" fill="#333">✓</text>
<text x="240.5" y="30" font-size="10" text-anchor="middle" fill="#555">5</text>
<rect x="262" y="40" width="33" height="32" rx="4" fill="#fdf7e3" stroke="#c9b45a" stroke-width="1.2"/>
<text x="278.5" y="61" font-size="10.5" text-anchor="middle" fill="#333">live</text>
<rect x="262" y="90" width="33" height="32" rx="4" fill="#fdf7e3" stroke="#c9b45a" stroke-width="1.2"/>
<text x="278.5" y="111" font-size="10.5" text-anchor="middle" fill="#333">live</text>
<text x="278.5" y="30" font-size="10" text-anchor="middle" fill="#555">6</text>
<rect x="300" y="40" width="33" height="32" rx="4" fill="#fff" stroke="#bbb" stroke-width="1.2"/>
<text x="316.5" y="61" font-size="12" text-anchor="middle" fill="#555">?</text>
<rect x="300" y="90" width="33" height="32" rx="4" fill="#e8f0e8" stroke="#2a7d2a" stroke-width="1.2"/>
<text x="316.5" y="111" font-size="12" text-anchor="middle" fill="#333">✓</text>
<text x="316.5" y="30" font-size="10" text-anchor="middle" fill="#555">7</text>
<rect x="338" y="40" width="33" height="32" rx="4" fill="#fdeeee" stroke="#c0392b" stroke-width="1.2"/>
<text x="354.5" y="61" font-size="12" text-anchor="middle" fill="#333">✓</text>
<rect x="338" y="90" width="33" height="32" rx="4" fill="#fdeeee" stroke="#c0392b" stroke-width="1.2"/>
<text x="354.5" y="111" font-size="12" text-anchor="middle" fill="#333">✓</text>
<text x="354.5" y="30" font-size="10" text-anchor="middle" fill="#555">8</text>
<rect x="376" y="40" width="33" height="32" rx="4" fill="#e8f0e8" stroke="#2a7d2a" stroke-width="1.2"/>
<text x="392.5" y="61" font-size="12" text-anchor="middle" fill="#333">✓</text>
<rect x="376" y="90" width="33" height="32" rx="4" fill="#fff" stroke="#bbb" stroke-width="1.2"/>
<text x="392.5" y="111" font-size="12" text-anchor="middle" fill="#555">?</text>
<text x="392.5" y="30" font-size="10" text-anchor="middle" fill="#555">9</text>
<rect x="414" y="40" width="33" height="32" rx="4" fill="#fff" stroke="#bbb" stroke-width="1.2"/>
<text x="430.5" y="61" font-size="12" text-anchor="middle" fill="#555">?</text>
<rect x="414" y="90" width="33" height="32" rx="4" fill="#e8f0e8" stroke="#2a7d2a" stroke-width="1.2"/>
<text x="430.5" y="111" font-size="12" text-anchor="middle" fill="#333">✓</text>
<text x="430.5" y="30" font-size="10" text-anchor="middle" fill="#555">10</text>
<rect x="452" y="40" width="33" height="32" rx="4" fill="#e8f0e8" stroke="#2a7d2a" stroke-width="1.2"/>
<text x="468.5" y="61" font-size="12" text-anchor="middle" fill="#333">✓</text>
<rect x="452" y="90" width="33" height="32" rx="4" fill="#fff" stroke="#bbb" stroke-width="1.2"/>
<text x="468.5" y="111" font-size="12" text-anchor="middle" fill="#555">?</text>
<text x="468.5" y="30" font-size="10" text-anchor="middle" fill="#555">11</text>
<rect x="490" y="40" width="33" height="32" rx="4" fill="#fff" stroke="#bbb" stroke-width="1.2"/>
<text x="506.5" y="61" font-size="12" text-anchor="middle" fill="#555">?</text>
<rect x="490" y="90" width="33" height="32" rx="4" fill="#e8f0e8" stroke="#2a7d2a" stroke-width="1.2"/>
<text x="506.5" y="111" font-size="12" text-anchor="middle" fill="#333">✓</text>
<text x="506.5" y="30" font-size="10" text-anchor="middle" fill="#555">12</text>
<text x="270" y="143" font-size="11" text-anchor="middle" fill="#333">✓ revealed by the history T · ? unrevealed</text>
<text x="270" y="157" font-size="11" text-anchor="middle" fill="#333">red: core D (both revealed) · gold: live coordinate i (neither revealed)</text>
<text x="270" y="174" font-size="11.5" text-anchor="middle" fill="#333" font-weight="bold">every non-live column has at least one ✓ — that is C<tspan baseline-shift="sub" font-size="70%">X</tspan> ∪ C<tspan baseline-shift="sub" font-size="70%">Y</tspan> = [n] ∖ {i}</text>
</svg>