<svg class="setupfig" viewBox="0 0 650 220" width="100%" role="img" aria-label="The three cases of the 4x4 cancellation">
<text x="102.0" y="24.0" font-size="12" fill="#7a1f1f" text-anchor="middle" font-weight="bold">upper&#8202;+&#8202;upper</text>
<rect x="30.0" y="36.0" width="26.0" height="26.0" fill="#c0392b" fill-opacity="0.25" stroke="#999" stroke-width="0.8"/>
<text x="43.0" y="53.0" font-size="11" fill="#333" text-anchor="middle" class="v">u</text>
<rect x="56.0" y="36.0" width="26.0" height="26.0" fill="#c0392b" fill-opacity="0.25" stroke="#999" stroke-width="0.8"/>
<text x="69.0" y="53.0" font-size="11" fill="#333" text-anchor="middle" class="v">v</text>
<rect x="82.0" y="36.0" width="26.0" height="26.0" fill="#fff" stroke="#999" stroke-width="0.8"/>
<text x="95.0" y="53.0" font-size="11" fill="#333" text-anchor="middle">1</text>
<rect x="108.0" y="36.0" width="26.0" height="26.0" fill="#fff" stroke="#999" stroke-width="0.8"/>
<text x="121.0" y="53.0" font-size="11" fill="#333" text-anchor="middle">1</text>
<rect x="30.0" y="62.0" width="26.0" height="26.0" fill="#c0392b" fill-opacity="0.25" stroke="#999" stroke-width="0.8"/>
<text x="43.0" y="79.0" font-size="11" fill="#333" text-anchor="middle" class="v">w</text>
<rect x="56.0" y="62.0" width="26.0" height="26.0" fill="#c0392b" fill-opacity="0.25" stroke="#999" stroke-width="0.8"/>
<text x="69.0" y="79.0" font-size="11" fill="#333" text-anchor="middle" class="v">z</text>
<rect x="82.0" y="62.0" width="26.0" height="26.0" fill="#fff" stroke="#999" stroke-width="0.8"/>
<text x="95.0" y="79.0" font-size="11" fill="#333" text-anchor="middle">1</text>
<rect x="108.0" y="62.0" width="26.0" height="26.0" fill="#fff" stroke="#999" stroke-width="0.8"/>
<text x="121.0" y="79.0" font-size="11" fill="#333" text-anchor="middle">1</text>
<rect x="30.0" y="88.0" width="26.0" height="26.0" fill="#fff" stroke="#999" stroke-width="0.8"/>
<text x="43.0" y="105.0" font-size="11" fill="#333" text-anchor="middle" class="v">p</text>
<rect x="56.0" y="88.0" width="26.0" height="26.0" fill="#fff" stroke="#999" stroke-width="0.8"/>
<text x="69.0" y="105.0" font-size="11" fill="#333" text-anchor="middle" class="v">q</text>
<rect x="82.0" y="88.0" width="26.0" height="26.0" fill="#2e6da4" fill-opacity="0.25" stroke="#999" stroke-width="0.8"/>
<text x="95.0" y="105.0" font-size="11" fill="#333" text-anchor="middle">2</text>
<rect x="108.0" y="88.0" width="26.0" height="26.0" fill="#2e6da4" fill-opacity="0.25" stroke="#999" stroke-width="0.8"/>
<text x="121.0" y="105.0" font-size="11" fill="#333" text-anchor="middle">&#8722;2</text>
<rect x="30.0" y="114.0" width="26.0" height="26.0" fill="#fff" stroke="#999" stroke-width="0.8"/>
<text x="43.0" y="131.0" font-size="11" fill="#333" text-anchor="middle" class="v">r</text>
<rect x="56.0" y="114.0" width="26.0" height="26.0" fill="#fff" stroke="#999" stroke-width="0.8"/>
<text x="69.0" y="131.0" font-size="11" fill="#333" text-anchor="middle" class="v">s</text>
<rect x="82.0" y="114.0" width="26.0" height="26.0" fill="#2e6da4" fill-opacity="0.25" stroke="#999" stroke-width="0.8"/>
<text x="95.0" y="131.0" font-size="11" fill="#333" text-anchor="middle">2</text>
<rect x="108.0" y="114.0" width="26.0" height="26.0" fill="#2e6da4" fill-opacity="0.25" stroke="#999" stroke-width="0.8"/>
<text x="121.0" y="131.0" font-size="11" fill="#333" text-anchor="middle">&#8722;2</text>
<text x="82.0" y="168.0" font-size="9.5" fill="#c0392b" text-anchor="middle">variable rows &#8594; cols 1,2</text>
<text x="102.0" y="186.0" font-size="10" fill="#2e6da4" text-anchor="middle">complementary constant minor: per = &#8722;8</text>
<text x="102.0" y="204.0" font-size="11" fill="#333" text-anchor="middle" class="v">(uz+vw)&#183;(&#8722;8)</text>
<text x="307.0" y="24.0" font-size="12" fill="#7a1f1f" text-anchor="middle" font-weight="bold">lower&#8202;+&#8202;lower</text>
<rect x="235.0" y="36.0" width="26.0" height="26.0" fill="#fff" stroke="#999" stroke-width="0.8"/>
<text x="248.0" y="53.0" font-size="11" fill="#333" text-anchor="middle" class="v">u</text>
<rect x="261.0" y="36.0" width="26.0" height="26.0" fill="#fff" stroke="#999" stroke-width="0.8"/>
<text x="274.0" y="53.0" font-size="11" fill="#333" text-anchor="middle" class="v">v</text>
<rect x="287.0" y="36.0" width="26.0" height="26.0" fill="#2e6da4" fill-opacity="0.25" stroke="#999" stroke-width="0.8"/>
<text x="300.0" y="53.0" font-size="11" fill="#333" text-anchor="middle">1</text>
<rect x="313.0" y="36.0" width="26.0" height="26.0" fill="#2e6da4" fill-opacity="0.25" stroke="#999" stroke-width="0.8"/>
<text x="326.0" y="53.0" font-size="11" fill="#333" text-anchor="middle">1</text>
<rect x="235.0" y="62.0" width="26.0" height="26.0" fill="#fff" stroke="#999" stroke-width="0.8"/>
<text x="248.0" y="79.0" font-size="11" fill="#333" text-anchor="middle" class="v">w</text>
<rect x="261.0" y="62.0" width="26.0" height="26.0" fill="#fff" stroke="#999" stroke-width="0.8"/>
<text x="274.0" y="79.0" font-size="11" fill="#333" text-anchor="middle" class="v">z</text>
<rect x="287.0" y="62.0" width="26.0" height="26.0" fill="#2e6da4" fill-opacity="0.25" stroke="#999" stroke-width="0.8"/>
<text x="300.0" y="79.0" font-size="11" fill="#333" text-anchor="middle">1</text>
<rect x="313.0" y="62.0" width="26.0" height="26.0" fill="#2e6da4" fill-opacity="0.25" stroke="#999" stroke-width="0.8"/>
<text x="326.0" y="79.0" font-size="11" fill="#333" text-anchor="middle">1</text>
<rect x="235.0" y="88.0" width="26.0" height="26.0" fill="#c0392b" fill-opacity="0.25" stroke="#999" stroke-width="0.8"/>
<text x="248.0" y="105.0" font-size="11" fill="#333" text-anchor="middle" class="v">p</text>
<rect x="261.0" y="88.0" width="26.0" height="26.0" fill="#c0392b" fill-opacity="0.25" stroke="#999" stroke-width="0.8"/>
<text x="274.0" y="105.0" font-size="11" fill="#333" text-anchor="middle" class="v">q</text>
<rect x="287.0" y="88.0" width="26.0" height="26.0" fill="#fff" stroke="#999" stroke-width="0.8"/>
<text x="300.0" y="105.0" font-size="11" fill="#333" text-anchor="middle">2</text>
<rect x="313.0" y="88.0" width="26.0" height="26.0" fill="#fff" stroke="#999" stroke-width="0.8"/>
<text x="326.0" y="105.0" font-size="11" fill="#333" text-anchor="middle">&#8722;2</text>
<rect x="235.0" y="114.0" width="26.0" height="26.0" fill="#c0392b" fill-opacity="0.25" stroke="#999" stroke-width="0.8"/>
<text x="248.0" y="131.0" font-size="11" fill="#333" text-anchor="middle" class="v">r</text>
<rect x="261.0" y="114.0" width="26.0" height="26.0" fill="#c0392b" fill-opacity="0.25" stroke="#999" stroke-width="0.8"/>
<text x="274.0" y="131.0" font-size="11" fill="#333" text-anchor="middle" class="v">s</text>
<rect x="287.0" y="114.0" width="26.0" height="26.0" fill="#fff" stroke="#999" stroke-width="0.8"/>
<text x="300.0" y="131.0" font-size="11" fill="#333" text-anchor="middle">2</text>
<rect x="313.0" y="114.0" width="26.0" height="26.0" fill="#fff" stroke="#999" stroke-width="0.8"/>
<text x="326.0" y="131.0" font-size="11" fill="#333" text-anchor="middle">&#8722;2</text>
<text x="287.0" y="168.0" font-size="9.5" fill="#c0392b" text-anchor="middle">variable rows &#8594; cols 1,2</text>
<text x="307.0" y="186.0" font-size="10" fill="#2e6da4" text-anchor="middle">complementary constant minor: per = 2</text>
<text x="307.0" y="204.0" font-size="11" fill="#333" text-anchor="middle" class="v">(ps+qr)&#183;2</text>
<text x="512.0" y="24.0" font-size="12" fill="#7a1f1f" text-anchor="middle" font-weight="bold">mixed: dies</text>
<rect x="440.0" y="36.0" width="26.0" height="26.0" fill="#c0392b" fill-opacity="0.25" stroke="#999" stroke-width="0.8"/>
<text x="453.0" y="53.0" font-size="11" fill="#333" text-anchor="middle" class="v">u</text>
<rect x="466.0" y="36.0" width="26.0" height="26.0" fill="#c0392b" fill-opacity="0.25" stroke="#999" stroke-width="0.8"/>
<text x="479.0" y="53.0" font-size="11" fill="#333" text-anchor="middle" class="v">v</text>
<rect x="492.0" y="36.0" width="26.0" height="26.0" fill="#fff" stroke="#999" stroke-width="0.8"/>
<text x="505.0" y="53.0" font-size="11" fill="#333" text-anchor="middle">1</text>
<rect x="518.0" y="36.0" width="26.0" height="26.0" fill="#fff" stroke="#999" stroke-width="0.8"/>
<text x="531.0" y="53.0" font-size="11" fill="#333" text-anchor="middle">1</text>
<rect x="440.0" y="62.0" width="26.0" height="26.0" fill="#fff" stroke="#999" stroke-width="0.8"/>
<text x="453.0" y="79.0" font-size="11" fill="#333" text-anchor="middle" class="v">w</text>
<rect x="466.0" y="62.0" width="26.0" height="26.0" fill="#fff" stroke="#999" stroke-width="0.8"/>
<text x="479.0" y="79.0" font-size="11" fill="#333" text-anchor="middle" class="v">z</text>
<rect x="492.0" y="62.0" width="26.0" height="26.0" fill="#2e6da4" fill-opacity="0.25" stroke="#999" stroke-width="0.8"/>
<text x="505.0" y="79.0" font-size="11" fill="#333" text-anchor="middle">1</text>
<rect x="518.0" y="62.0" width="26.0" height="26.0" fill="#2e6da4" fill-opacity="0.25" stroke="#999" stroke-width="0.8"/>
<text x="531.0" y="79.0" font-size="11" fill="#333" text-anchor="middle">1</text>
<rect x="440.0" y="88.0" width="26.0" height="26.0" fill="#c0392b" fill-opacity="0.25" stroke="#999" stroke-width="0.8"/>
<text x="453.0" y="105.0" font-size="11" fill="#333" text-anchor="middle" class="v">p</text>
<rect x="466.0" y="88.0" width="26.0" height="26.0" fill="#c0392b" fill-opacity="0.25" stroke="#999" stroke-width="0.8"/>
<text x="479.0" y="105.0" font-size="11" fill="#333" text-anchor="middle" class="v">q</text>
<rect x="492.0" y="88.0" width="26.0" height="26.0" fill="#fff" stroke="#999" stroke-width="0.8"/>
<text x="505.0" y="105.0" font-size="11" fill="#333" text-anchor="middle">2</text>
<rect x="518.0" y="88.0" width="26.0" height="26.0" fill="#fff" stroke="#999" stroke-width="0.8"/>
<text x="531.0" y="105.0" font-size="11" fill="#333" text-anchor="middle">&#8722;2</text>
<rect x="440.0" y="114.0" width="26.0" height="26.0" fill="#fff" stroke="#999" stroke-width="0.8"/>
<text x="453.0" y="131.0" font-size="11" fill="#333" text-anchor="middle" class="v">r</text>
<rect x="466.0" y="114.0" width="26.0" height="26.0" fill="#fff" stroke="#999" stroke-width="0.8"/>
<text x="479.0" y="131.0" font-size="11" fill="#333" text-anchor="middle" class="v">s</text>
<rect x="492.0" y="114.0" width="26.0" height="26.0" fill="#2e6da4" fill-opacity="0.25" stroke="#999" stroke-width="0.8"/>
<text x="505.0" y="131.0" font-size="11" fill="#333" text-anchor="middle">2</text>
<rect x="518.0" y="114.0" width="26.0" height="26.0" fill="#2e6da4" fill-opacity="0.25" stroke="#999" stroke-width="0.8"/>
<text x="531.0" y="131.0" font-size="11" fill="#333" text-anchor="middle">&#8722;2</text>
<text x="492.0" y="168.0" font-size="9.5" fill="#c0392b" text-anchor="middle">variable rows &#8594; cols 1,2</text>
<text x="512.0" y="186.0" font-size="10" fill="#2e6da4" text-anchor="middle">complementary constant minor: per = 0</text>
<text x="512.0" y="204.0" font-size="11" fill="#333" text-anchor="middle" class="v">anything &#183; 0 = 0</text>
</svg>
