<svg class="setupfig" viewBox="130 95 385 225" width="100%" role="img" aria-label="Two planes meeting at principal angles; overlap is the sum of squared cosines">
<defs><marker id="c2_ar_fig_overlap" viewBox="0 0 10 10" refX="9" refY="5" markerWidth="7" markerHeight="7" orient="auto-start-reverse"><path d="M0,0 L10,5 L0,10 z" fill="#333"/></marker><marker id="c2_arR_fig_overlap" viewBox="0 0 10 10" refX="9" refY="5" markerWidth="7" markerHeight="7" orient="auto-start-reverse"><path d="M0,0 L10,5 L0,10 z" fill="#c0392b"/></marker><marker id="c2_arB_fig_overlap" viewBox="0 0 10 10" refX="9" refY="5" markerWidth="7" markerHeight="7" orient="auto-start-reverse"><path d="M0,0 L10,5 L0,10 z" fill="#2e6da4"/></marker><marker id="c2_arG_fig_overlap" viewBox="0 0 10 10" refX="9" refY="5" markerWidth="7" markerHeight="7" orient="auto-start-reverse"><path d="M0,0 L10,5 L0,10 z" fill="#b8860b"/></marker></defs>
<polygon points="158.41,168.18 337.87,215.70 441.59,161.82 262.13,114.30" fill="#c0392b" stroke="#c0392b" stroke-width="1.4" opacity="0.22"/><polygon points="169.41,111.44 348.87,158.96 430.59,218.56 251.13,171.04" fill="#2e6da4" stroke="#2e6da4" stroke-width="1.4" opacity="0.22"/><line x1="193.2" y1="136.7" x2="406.8" y2="193.3" stroke="#333" stroke-width="2.0"/><text x="414.8" y="197.3" font-size="10.5" fill="#333" text-anchor="start">shared line: &#952;&#8321; = 0</text><path d="M337.8,145.3 Q300.0,125.0 329.8,186.7" fill="none" stroke="#333" stroke-width="1.2"/><text x="359.8" y="152.0" font-size="12" fill="#333" text-anchor="start" class="v">&#952;&#8322;</text><text x="449.6" y="173.8" font-size="12" fill="#c0392b" text-anchor="start" class="v">im&#8201;P<tspan baseline-shift="sub" font-size="8">x</tspan></text><text x="245.1" y="163.0" font-size="12" fill="#2e6da4" text-anchor="end" class="v">im&#8201;P<tspan baseline-shift="sub" font-size="8">y</tspan></text><text x="300.0" y="300.0" font-size="12" fill="#333" text-anchor="middle">tr(P<tspan baseline-shift="sub" font-size="8">x</tspan>P<tspan baseline-shift="sub" font-size="8">y</tspan>) = cos&#178;&#952;&#8321; + cos&#178;&#952;&#8322; = 1 + cos&#178;38&#176; = 1.621</text>
</svg>
