<svg class="setupfig" viewBox="0 0 700 275" width="100%" role="img" aria-label="Computed convergence of the top eigenvalue to Gamma_H">
<defs><marker id="c2_ar_fig_lammax" viewBox="0 0 10 10" refX="9" refY="5" markerWidth="7" markerHeight="7" orient="auto-start-reverse"><path d="M0,0 L10,5 L0,10 z" fill="#333"/></marker><marker id="c2_arR_fig_lammax" viewBox="0 0 10 10" refX="9" refY="5" markerWidth="7" markerHeight="7" orient="auto-start-reverse"><path d="M0,0 L10,5 L0,10 z" fill="#c0392b"/></marker><marker id="c2_arB_fig_lammax" viewBox="0 0 10 10" refX="9" refY="5" markerWidth="7" markerHeight="7" orient="auto-start-reverse"><path d="M0,0 L10,5 L0,10 z" fill="#2e6da4"/></marker><marker id="c2_arG_fig_lammax" viewBox="0 0 10 10" refX="9" refY="5" markerWidth="7" markerHeight="7" orient="auto-start-reverse"><path d="M0,0 L10,5 L0,10 z" fill="#b8860b"/></marker></defs>
<line x1="70.0" y1="230.0" x2="630.0" y2="230.0" stroke="#333" stroke-width="1.2"/><line x1="70.0" y1="230.0" x2="70.0" y2="55.0" stroke="#333" stroke-width="1.2"/><line x1="70.0" y1="230.0" x2="70.0" y2="234.0" stroke="#333" stroke-width="1"/><text x="70.0" y="246.0" font-size="9.5" fill="#777" text-anchor="middle">100</text><line x1="280.5" y1="230.0" x2="280.5" y2="234.0" stroke="#333" stroke-width="1"/><text x="280.5" y="246.0" font-size="9.5" fill="#777" text-anchor="middle">400</text><line x1="419.5" y1="230.0" x2="419.5" y2="234.0" stroke="#333" stroke-width="1"/><text x="419.5" y="246.0" font-size="9.5" fill="#777" text-anchor="middle">1000</text><line x1="630.0" y1="230.0" x2="630.0" y2="234.0" stroke="#333" stroke-width="1"/><text x="630.0" y="246.0" font-size="9.5" fill="#777" text-anchor="middle">4000</text><text x="350.0" y="262.0" font-size="11" fill="#333" text-anchor="middle">n  (log scale)</text><line x1="70.0" y1="76.6" x2="630.0" y2="76.6" stroke="#c0392b" stroke-width="1.4" stroke-dasharray="6,3"/><text x="630.0" y="68.6" font-size="10.5" fill="#c0392b" text-anchor="end">&#915;<tspan baseline-shift="sub" font-size="7">H</tspan>(0.35, 0.10) = 0.57656</text><polyline points="70.00,216.50 141.35,182.25 209.10,162.57 280.45,136.86 349.41,124.04 419.55,110.55 490.90,101.81 558.65,95.57 630.00,90.63" fill="none" stroke="#2e6da4" stroke-width="1.8"/><circle cx="70.0" cy="216.5" r="3.5" fill="#2e6da4" stroke="none" stroke-width="1.0"/><circle cx="141.4" cy="182.3" r="3.5" fill="#2e6da4" stroke="none" stroke-width="1.0"/><circle cx="209.1" cy="162.6" r="3.5" fill="#2e6da4" stroke="none" stroke-width="1.0"/><circle cx="280.5" cy="136.9" r="3.5" fill="#2e6da4" stroke="none" stroke-width="1.0"/><circle cx="349.4" cy="124.0" r="3.5" fill="#2e6da4" stroke="none" stroke-width="1.0"/><circle cx="419.5" cy="110.6" r="3.5" fill="#2e6da4" stroke="none" stroke-width="1.0"/><circle cx="490.9" cy="101.8" r="3.5" fill="#2e6da4" stroke="none" stroke-width="1.0"/><circle cx="558.6" cy="95.6" r="3.5" fill="#2e6da4" stroke="none" stroke-width="1.0"/><circle cx="630.0" cy="90.6" r="3.5" fill="#2e6da4" stroke="none" stroke-width="1.0"/><text x="350.0" y="192.6" font-size="10.5" fill="#2e6da4" text-anchor="middle">&#955;<tspan baseline-shift="sub" font-size="6">max</tspan>(J<tspan baseline-shift="sub" font-size="7">H</tspan>(n, 0.1n, 0.35n)) (computed exactly)</text><text x="626.0" y="108.6" font-size="10" fill="#777" text-anchor="end">gap 5.2e-03 at n = 4000</text>
</svg>
