<svg class="setupfig" viewBox="0 0 760 350" width="100%" role="img" aria-label="The tangent sphere and the latitude decomposition, computed orthographic projection">
<defs><marker id="c2_ar_fig_tangentsphere" viewBox="0 0 10 10" refX="9" refY="5" markerWidth="7" markerHeight="7" orient="auto-start-reverse"><path d="M0,0 L10,5 L0,10 z" fill="#333"/></marker><marker id="c2_arR_fig_tangentsphere" viewBox="0 0 10 10" refX="9" refY="5" markerWidth="7" markerHeight="7" orient="auto-start-reverse"><path d="M0,0 L10,5 L0,10 z" fill="#c0392b"/></marker><marker id="c2_arB_fig_tangentsphere" viewBox="0 0 10 10" refX="9" refY="5" markerWidth="7" markerHeight="7" orient="auto-start-reverse"><path d="M0,0 L10,5 L0,10 z" fill="#2e6da4"/></marker><marker id="c2_arG_fig_tangentsphere" viewBox="0 0 10 10" refX="9" refY="5" markerWidth="7" markerHeight="7" orient="auto-start-reverse"><path d="M0,0 L10,5 L0,10 z" fill="#b8860b"/></marker></defs>
<circle cx="300.0" cy="175.0" r="130" fill="none" stroke="#333" stroke-width="1.5"/><polyline points="170.05,178.44 170.12,178.52 170.28,178.61 170.53,178.69 170.87,178.77 171.30,178.85 171.81,178.93 172.41,179.00 173.10,179.07 173.88,179.13 174.75,179.20 175.70,179.26 176.73,179.32 177.85,179.37 179.05,179.42 180.34,179.47 181.71,179.52 183.16,179.56 184.68,179.60 186.29,179.64 187.98,179.67 189.74,179.70 191.58,179.73 193.49,179.75 195.48,179.77 197.54,179.79 199.66,179.80 201.86,179.82 204.12,179.82 206.45,179.83 208.85,179.83 211.30,179.83 213.82,179.82 216.39,179.81 219.03,179.80 221.72,179.78 224.46,179.76 227.25,179.74 230.10,179.72 232.99,179.69 235.92,179.65 238.91,179.62 241.93,179.58 244.99,179.54 248.09,179.50 251.23,179.45 254.40,179.40 257.60,179.34 260.83,179.29 264.09,179.23 267.37,179.16 270.67,179.10 274.00,179.03 277.34,178.96 280.70,178.89 284.07,178.81 287.45,178.73 290.84,178.65 294.24,178.57 297.64,178.48 301.04,178.39 304.44,178.30 307.84,178.21 311.23,178.11 314.62,178.01 317.99,177.91 321.36,177.81 324.70,177.71 328.03,177.60 331.35,177.49 334.64,177.39 337.90,177.27 341.15,177.16 344.36,177.05 347.54,176.93 350.69,176.82 353.81,176.70 356.88,176.58 359.92,176.46 362.92,176.34 365.88,176.22 368.79,176.09 371.65,175.97 374.46,175.85 377.22,175.72 379.93,175.60 382.59,175.47 385.19,175.35 387.73,175.22 390.21,175.09 392.62,174.97 394.98,174.84 397.27,174.71 399.49,174.59 401.65,174.46 403.73,174.34 405.74,174.21 407.68,174.09 409.55,173.96 411.34,173.84 413.06,173.72 414.70,173.60 416.26,173.48 417.74,173.36 419.14,173.24 420.46,173.12 421.69,173.01 422.84,172.89 423.91,172.78 424.89,172.67 425.79,172.56 426.60,172.45 427.33,172.34 427.96,172.24 428.51,172.14 428.97,172.03 429.35,171.94 429.63,171.84 429.83,171.74 429.93,171.65" fill="none" stroke="#b8860b" stroke-width="1.4" stroke-dasharray="4,4"/><polyline points="429.47,171.31 429.13,171.23 428.70,171.15 428.19,171.07 427.59,171.00 426.90,170.93 426.12,170.87 425.25,170.80 424.30,170.74 423.27,170.68 422.15,170.63 420.95,170.58 419.66,170.53 418.29,170.48 416.84,170.44 415.32,170.40 413.71,170.36 412.02,170.33 410.26,170.30 408.42,170.27 406.51,170.25 404.52,170.23 402.46,170.21 400.34,170.20 398.14,170.18 395.88,170.18 393.55,170.17 391.15,170.17 388.70,170.17 386.18,170.18 383.61,170.19 380.97,170.20 378.28,170.22 375.54,170.24 372.75,170.26 369.90,170.28 367.01,170.31 364.08,170.35 361.09,170.38 358.07,170.42 355.01,170.46 351.91,170.50 348.77,170.55 345.60,170.60 342.40,170.66 339.17,170.71 335.91,170.77 332.63,170.84 329.33,170.90 326.00,170.97 322.66,171.04 319.30,171.11 315.93,171.19 312.55,171.27 309.16,171.35 305.76,171.43 302.36,171.52 298.96,171.61 295.56,171.70 292.16,171.79 288.77,171.89 285.38,171.99 282.01,172.09 278.64,172.19 275.30,172.29 271.97,172.40 268.65,172.51 265.36,172.61 262.10,172.73 258.85,172.84 255.64,172.95 252.46,173.07 249.31,173.18 246.19,173.30 243.12,173.42 240.08,173.54 237.08,173.66 234.12,173.78 231.21,173.91 228.35,174.03 225.54,174.15 222.78,174.28 220.07,174.40 217.41,174.53 214.81,174.65 212.27,174.78 209.79,174.91 207.38,175.03 205.02,175.16 202.73,175.29 200.51,175.41 198.35,175.54 196.27,175.66 194.26,175.79 192.32,175.91 190.45,176.04 188.66,176.16 186.94,176.28 185.30,176.40 183.74,176.52 182.26,176.64 180.86,176.76 179.54,176.88 178.31,176.99 177.16,177.11 176.09,177.22 175.11,177.33 174.21,177.44 173.40,177.55 172.67,177.66 172.04,177.76 171.49,177.86 171.03,177.97 170.65,178.06 170.37,178.16 170.17,178.26 170.07,178.35" fill="none" stroke="#b8860b" stroke-width="2.2"/><polyline points="429.95,171.56 429.88,171.48 429.72,171.39 429.47,171.31" fill="none" stroke="#b8860b" stroke-width="2.2"/><line x1="300.0" y1="175.0" x2="303.4" y2="304.9" stroke="#333" stroke-width="1.6" marker-end="url(#c2_ar_fig_tangentsphere)"/><text x="313.4" y="300.9" font-size="11.5" fill="#333" text-anchor="start" class="v">x (code point)</text><line x1="300.0" y1="175.0" x2="359.4" y2="249.2" stroke="#2e6da4" stroke-width="1.6" marker-end="url(#c2_arB_fig_tangentsphere)"/><text x="367.4" y="261.2" font-size="12" fill="#2e6da4" text-anchor="start" class="v">u</text><line x1="300.0" y1="175.0" x2="302.0" y2="252.9" stroke="#c0392b" stroke-width="2.4"/><circle cx="302.0" cy="252.9" r="3" fill="#c0392b" stroke="none" stroke-width="1.0"/><text x="294.0" y="244.9" font-size="10.5" fill="#c0392b" text-anchor="end" class="v">t&#183;x</text><line x1="302.0" y1="252.9" x2="359.4" y2="249.2" stroke="#2a7d2a" stroke-width="1.6" stroke-dasharray="5,3" marker-end="url(#c2_arG_fig_tangentsphere)"/><circle cx="371.7" cy="170.3" r="4" fill="#b8860b" stroke="none" stroke-width="1.0"/><text x="359.7" y="194.3" font-size="11" fill="#b8860b" text-anchor="end" class="v">&#958; &#8712; S(x<tspan baseline-shift="super" font-size="6">&#8869;</tspan>)</text><line x1="355.7" y1="188.3" x2="368.7" y2="175.3" stroke="#b8860b" stroke-width="0.9"/><text x="300.0" y="330.0" font-size="11" fill="#333" text-anchor="middle">u = t&#183;x + &#8730;(1&#8722;t&#178;)&#183;&#958;:  latitude t toward x, direction &#958; on the tangent sphere (gold)</text><rect x="490.0" y="60.0" width="245.0" height="120.0" rx="6" fill="#eef4fa" stroke="#333" stroke-width="1.0"/><text x="612.0" y="84.0" font-size="10.5" fill="#333" text-anchor="middle" font-weight="bold">the fiber at x:</text><text x="612.0" y="106.0" font-size="10.5" fill="#333" text-anchor="middle">E<tspan baseline-shift="sub" font-size="8">x</tspan> = harmonics of degree k</text><text x="612.0" y="126.0" font-size="10.5" fill="#333" text-anchor="middle">on S(x<tspan baseline-shift="super" font-size="6">&#8869;</tspan>)</text><text x="612.0" y="152.0" font-size="10" fill="#777" text-anchor="middle">eigenfunction shape (63):</text><text x="612.0" y="170.0" font-size="10.5" fill="#7a1f1f" text-anchor="middle">p(t)&#183;(1&#8722;t&#178;)<tspan baseline-shift="super" font-size="6">k/2</tspan>&#183;Y(&#958;)</text>
</svg>
