<svg class="setupfig" viewBox="0 0 620 240" width="100%" role="img" aria-label="The completeness weight budget">
<text x="110" y="62" font-size="11" text-anchor="end" fill="#c0392b">global table 0</text>
<rect x="120" y="46" width="22" height="24" rx="3" fill="#fdf0ee" stroke="#c0392b" stroke-width="1.0"/>
<text x="131" y="62" font-size="10" text-anchor="middle" fill="#c0392b">1</text>
<rect x="146" y="46" width="22" height="24" rx="3" fill="#fdf0ee" stroke="#c0392b" stroke-width="1.0"/>
<text x="157" y="62" font-size="10" text-anchor="middle" fill="#c0392b">1</text>
<rect x="172" y="46" width="22" height="24" rx="3" fill="#fdf0ee" stroke="#c0392b" stroke-width="1.0"/>
<text x="183" y="62" font-size="10" text-anchor="middle" fill="#c0392b">1</text>
<rect x="198" y="46" width="22" height="24" rx="3" fill="#fdf0ee" stroke="#c0392b" stroke-width="1.0"/>
<text x="209" y="62" font-size="10" text-anchor="middle" fill="#c0392b">1</text>
<rect x="224" y="46" width="22" height="24" rx="3" fill="#fdf0ee" stroke="#c0392b" stroke-width="1.0"/>
<text x="235" y="62" font-size="10" text-anchor="middle" fill="#c0392b">1</text>
<rect x="250" y="46" width="22" height="24" rx="3" fill="#fdf0ee" stroke="#c0392b" stroke-width="1.0"/>
<text x="261" y="62" font-size="10" text-anchor="middle" fill="#c0392b">1</text>
<rect x="276" y="46" width="22" height="24" rx="3" fill="#fdf0ee" stroke="#c0392b" stroke-width="1.0"/>
<text x="287" y="62" font-size="10" text-anchor="middle" fill="#c0392b">1</text>
<rect x="302" y="46" width="22" height="24" rx="3" fill="#fdf0ee" stroke="#c0392b" stroke-width="1.0"/>
<text x="313" y="62" font-size="10" text-anchor="middle" fill="#c0392b">1</text>
<rect x="328" y="46" width="22" height="24" rx="3" fill="#fdf0ee" stroke="#c0392b" stroke-width="1.0"/>
<text x="339" y="62" font-size="10" text-anchor="middle" fill="#c0392b">1</text>
<rect x="354" y="46" width="22" height="24" rx="3" fill="#fdf0ee" stroke="#c0392b" stroke-width="1.0"/>
<text x="365" y="62" font-size="10" text-anchor="middle" fill="#c0392b">1</text>
<rect x="380" y="46" width="22" height="24" rx="3" fill="#fdf0ee" stroke="#c0392b" stroke-width="1.0"/>
<text x="391" y="62" font-size="10" text-anchor="middle" fill="#c0392b">1</text>
<rect x="406" y="46" width="22" height="24" rx="3" fill="#fdf0ee" stroke="#c0392b" stroke-width="1.0"/>
<text x="417" y="62" font-size="10" text-anchor="middle" fill="#c0392b">1</text>
<rect x="432" y="46" width="22" height="24" rx="3" fill="#fdf0ee" stroke="#c0392b" stroke-width="1.0"/>
<text x="443" y="62" font-size="10" text-anchor="middle" fill="#c0392b">1</text>
<text x="110" y="106" font-size="11" text-anchor="end" fill="#2a7d2a">table (C&#8321;, &#963;|I&#8321;)</text>
<rect x="120" y="90" width="22" height="24" rx="3" fill="#f0f7f0" stroke="#2a7d2a" stroke-width="1.0"/>
<text x="131" y="106" font-size="10" text-anchor="middle" fill="#2a7d2a">1</text>
<rect x="146" y="90" width="22" height="24" rx="3" fill="#f0f7f0" stroke="#2a7d2a" stroke-width="1.0"/>
<text x="157" y="106" font-size="10" text-anchor="middle" fill="#2a7d2a">1</text>
<rect x="172" y="90" width="22" height="24" rx="3" fill="#f0f7f0" stroke="#2a7d2a" stroke-width="1.0"/>
<text x="183" y="106" font-size="10" text-anchor="middle" fill="#2a7d2a">1</text>
<rect x="198" y="90" width="22" height="24" rx="3" fill="#f0f7f0" stroke="#2a7d2a" stroke-width="1.0"/>
<text x="209" y="106" font-size="10" text-anchor="middle" fill="#2a7d2a">1</text>
<rect x="224" y="90" width="22" height="24" rx="3" fill="#f0f7f0" stroke="#2a7d2a" stroke-width="1.0"/>
<text x="235" y="106" font-size="10" text-anchor="middle" fill="#2a7d2a">1</text>
<rect x="250" y="90" width="22" height="24" rx="3" fill="#f0f7f0" stroke="#2a7d2a" stroke-width="1.0"/>
<text x="261" y="106" font-size="10" text-anchor="middle" fill="#2a7d2a">1</text>
<rect x="276" y="90" width="22" height="24" rx="3" fill="#f0f7f0" stroke="#2a7d2a" stroke-width="1.0"/>
<text x="287" y="106" font-size="10" text-anchor="middle" fill="#2a7d2a">1</text>
<rect x="302" y="90" width="22" height="24" rx="3" fill="#f0f7f0" stroke="#2a7d2a" stroke-width="1.0"/>
<text x="313" y="106" font-size="10" text-anchor="middle" fill="#2a7d2a">1</text>
<rect x="328" y="90" width="22" height="24" rx="3" fill="#f0f7f0" stroke="#2a7d2a" stroke-width="1.0"/>
<text x="339" y="106" font-size="10" text-anchor="middle" fill="#2a7d2a">1</text>
<rect x="354" y="90" width="22" height="24" rx="3" fill="#f0f7f0" stroke="#2a7d2a" stroke-width="1.0"/>
<text x="365" y="106" font-size="10" text-anchor="middle" fill="#2a7d2a">1</text>
<rect x="380" y="90" width="22" height="24" rx="3" fill="#f0f7f0" stroke="#2a7d2a" stroke-width="1.0"/>
<text x="391" y="106" font-size="10" text-anchor="middle" fill="#2a7d2a">1</text>
<rect x="406" y="90" width="22" height="24" rx="3" fill="#f0f7f0" stroke="#2a7d2a" stroke-width="1.0"/>
<text x="417" y="106" font-size="10" text-anchor="middle" fill="#2a7d2a">1</text>
<rect x="432" y="90" width="22" height="24" rx="3" fill="#f0f7f0" stroke="#2a7d2a" stroke-width="1.0"/>
<text x="443" y="106" font-size="10" text-anchor="middle" fill="#2a7d2a">1</text>
<text x="110" y="150" font-size="11" text-anchor="end" fill="#2a7d2a">table (C&#8322;, &#963;|I&#8322;)</text>
<rect x="120" y="134" width="22" height="24" rx="3" fill="#f0f7f0" stroke="#2a7d2a" stroke-width="1.0"/>
<text x="131" y="150" font-size="10" text-anchor="middle" fill="#2a7d2a">1</text>
<rect x="146" y="134" width="22" height="24" rx="3" fill="#f0f7f0" stroke="#2a7d2a" stroke-width="1.0"/>
<text x="157" y="150" font-size="10" text-anchor="middle" fill="#2a7d2a">1</text>
<rect x="172" y="134" width="22" height="24" rx="3" fill="#f0f7f0" stroke="#2a7d2a" stroke-width="1.0"/>
<text x="183" y="150" font-size="10" text-anchor="middle" fill="#2a7d2a">1</text>
<rect x="198" y="134" width="22" height="24" rx="3" fill="#f0f7f0" stroke="#2a7d2a" stroke-width="1.0"/>
<text x="209" y="150" font-size="10" text-anchor="middle" fill="#2a7d2a">1</text>
<rect x="224" y="134" width="22" height="24" rx="3" fill="#f0f7f0" stroke="#2a7d2a" stroke-width="1.0"/>
<text x="235" y="150" font-size="10" text-anchor="middle" fill="#2a7d2a">1</text>
<rect x="250" y="134" width="22" height="24" rx="3" fill="#f0f7f0" stroke="#2a7d2a" stroke-width="1.0"/>
<text x="261" y="150" font-size="10" text-anchor="middle" fill="#2a7d2a">1</text>
<rect x="276" y="134" width="22" height="24" rx="3" fill="#f0f7f0" stroke="#2a7d2a" stroke-width="1.0"/>
<text x="287" y="150" font-size="10" text-anchor="middle" fill="#2a7d2a">1</text>
<rect x="302" y="134" width="22" height="24" rx="3" fill="#f0f7f0" stroke="#2a7d2a" stroke-width="1.0"/>
<text x="313" y="150" font-size="10" text-anchor="middle" fill="#2a7d2a">1</text>
<rect x="328" y="134" width="22" height="24" rx="3" fill="#f0f7f0" stroke="#2a7d2a" stroke-width="1.0"/>
<text x="339" y="150" font-size="10" text-anchor="middle" fill="#2a7d2a">1</text>
<rect x="354" y="134" width="22" height="24" rx="3" fill="#f0f7f0" stroke="#2a7d2a" stroke-width="1.0"/>
<text x="365" y="150" font-size="10" text-anchor="middle" fill="#2a7d2a">1</text>
<rect x="380" y="134" width="22" height="24" rx="3" fill="#f0f7f0" stroke="#2a7d2a" stroke-width="1.0"/>
<text x="391" y="150" font-size="10" text-anchor="middle" fill="#2a7d2a">1</text>
<rect x="406" y="134" width="22" height="24" rx="3" fill="#f0f7f0" stroke="#2a7d2a" stroke-width="1.0"/>
<text x="417" y="150" font-size="10" text-anchor="middle" fill="#2a7d2a">1</text>
<rect x="432" y="134" width="22" height="24" rx="3" fill="#f0f7f0" stroke="#2a7d2a" stroke-width="1.0"/>
<text x="443" y="150" font-size="10" text-anchor="middle" fill="#2a7d2a">1</text>
<text x="289" y="30" font-size="11" text-anchor="middle" fill="#666">|P| = 13 ones per populated table</text>
<path d="M 466 46 L 480 46 L 480 158 L 466 158" fill="none" stroke="#333" stroke-width="1.2"/>
<text x="488" y="100" font-size="11.5" text-anchor="start" fill="#333">&#8467; + 1 = 3</text>
<text x="488" y="116" font-size="11.5" text-anchor="start" fill="#333">tables</text>
<text x="18" y="204" font-size="12" text-anchor="start" fill="#333">wt(x&#963;) = (&#8467; + 1)&#8202;|P| = R &#8212; toy: 3 &#215; 13 = 39;  real scale: R = (&#8467;+1)(q &#8722; m) &#8776; N&#8202;q &#8776; N&#178;&#8304;&#185;</text>
<text x="18" y="226" font-size="11" text-anchor="start" fill="#666">every other coordinate of x&#963; is zero: 13 of the 15 toy tables are empty</text>
</svg>