<svg class="setupfig" viewBox="0 0 640 280" width="100%" role="img" aria-label="Fixed finite norms inherit the gap">
<rect x="52" y="52" width="156" height="156" rx="0" fill="none" stroke="#2a7d2a" stroke-width="1.8"/>
<circle cx="130" cy="130" r="78" fill="none" stroke="#2e6da4" stroke-width="1.8"/>
<polygon points="130,52 208,130 130,208 52,130" fill="none" stroke="#c0392b" stroke-width="1.8"/>
<line x1="36" y1="130" x2="224" y2="130" stroke="#666" stroke-width="1"/>
<line x1="130" y1="36" x2="130" y2="224" stroke="#666" stroke-width="1"/>
<text x="160" y="98" font-size="11" text-anchor="middle" fill="#c0392b">p = 1</text>
<text x="192" y="68" font-size="11" text-anchor="middle" fill="#2e6da4">p = 2</text>
<text x="194" y="46" font-size="11" text-anchor="middle" fill="#2a7d2a">p = &#8734;</text>
<text x="130" y="250" font-size="11.5" text-anchor="middle" fill="#333">unit balls of &#8467;&#8346; norms</text>
<g transform="translate(290,6)">
<line x1="64" y1="200" x2="328" y2="200" stroke="#333" stroke-width="1.2"/>
<line x1="64" y1="200" x2="64" y2="26" stroke="#333" stroke-width="1.2"/>
<line x1="70.95" y1="200" x2="70.95" y2="204" stroke="#333" stroke-width="1"/>
<text x="70.95" y="216" font-size="11" text-anchor="middle" fill="#333">1</text>
<line x1="105.68" y1="200" x2="105.68" y2="204" stroke="#333" stroke-width="1"/>
<text x="105.68" y="216" font-size="11" text-anchor="middle" fill="#333">2</text>
<line x1="175.16" y1="200" x2="175.16" y2="204" stroke="#333" stroke-width="1"/>
<text x="175.16" y="216" font-size="11" text-anchor="middle" fill="#333">4</text>
<line x1="314.11" y1="200" x2="314.11" y2="204" stroke="#333" stroke-width="1"/>
<text x="314.11" y="216" font-size="11" text-anchor="middle" fill="#333">8</text>
<text x="328" y="228" font-size="12" text-anchor="end" fill="#333">norm exponent p</text>
<line x1="64" y1="59.68" x2="328" y2="59.68" stroke="#bbb" stroke-width="0.9" stroke-dasharray="3 3"/>
<text x="66.08" y="56.68" font-size="9.5" text-anchor="start" fill="#666">1/200</text>
<line x1="64" y1="129.84" x2="328" y2="129.84" stroke="#bbb" stroke-width="0.9" stroke-dasharray="3 3"/>
<text x="66.08" y="126.84" font-size="9.5" text-anchor="start" fill="#666">1/400</text>
<line x1="64" y1="164.92" x2="328" y2="164.92" stroke="#bbb" stroke-width="0.9" stroke-dasharray="3 3"/>
<text x="66.08" y="161.92" font-size="9.5" text-anchor="start" fill="#666">1/800</text>
<polyline points="70.95,59.68 72.68,66.36 74.42,72.43 76.16,77.98 77.89,83.06 79.63,87.74 81.37,92.06 83.11,96.06 84.84,99.77 86.58,103.23 88.32,106.45 90.05,109.47 91.79,112.3 93.53,114.96 95.26,117.46 97,119.82 98.74,122.04 100.47,124.15 102.21,126.15 103.95,128.04 105.68,129.84 107.42,131.55 109.16,133.18 110.89,134.73 112.63,136.22 114.37,137.63 116.11,138.99 117.84,140.29 119.58,141.53 121.32,142.73 123.05,143.87 124.79,144.97 126.53,146.03 128.26,147.05 130,148.03 131.74,148.97 133.47,149.88 135.21,150.76 136.95,151.61 138.68,152.43 140.42,153.23 142.16,153.99 143.89,154.73 145.63,155.45 147.37,156.15 149.11,156.82 150.84,157.48 152.58,158.11 154.32,158.73 156.05,159.33 157.79,159.91 159.53,160.47 161.26,161.02 163,161.56 164.74,162.07 166.47,162.58 168.21,163.07 169.95,163.55 171.68,164.02 173.42,164.48 175.16,164.92 176.89,165.35 178.63,165.77 180.37,166.19 182.11,166.59 183.84,166.98 185.58,167.37 187.32,167.74 189.05,168.11 190.79,168.47 192.53,168.82 194.26,169.16 196,169.5 197.74,169.82 199.47,170.14 201.21,170.46 202.95,170.77 204.68,171.07 206.42,171.36 208.16,171.65 209.89,171.94 211.63,172.21 213.37,172.49 215.11,172.75 216.84,173.01 218.58,173.27 220.32,173.52 222.05,173.77 223.79,174.01 225.53,174.25 227.26,174.49 229,174.72 230.74,174.94 232.47,175.16 234.21,175.38 235.95,175.6 237.68,175.81 239.42,176.01 241.16,176.22 242.89,176.42 244.63,176.61 246.37,176.81 248.11,177 249.84,177.18 251.58,177.37 253.32,177.55 255.05,177.73 256.79,177.9 258.53,178.07 260.26,178.24 262,178.41 263.74,178.58 265.47,178.74 267.21,178.9 268.95,179.06 270.68,179.21 272.42,179.36 274.16,179.51 275.89,179.66 277.63,179.81 279.37,179.95 281.11,180.1 282.84,180.24 284.58,180.37 286.32,180.51 288.05,180.65 289.79,180.78 291.53,180.91 293.26,181.04 295,181.16 296.74,181.29 298.47,181.41 300.21,181.54 301.95,181.66 303.68,181.78 305.42,181.89 307.16,182.01 308.89,182.12 310.63,182.24 312.37,182.35 314.11,182.46 315.84,182.57 317.58,182.68 319.32,182.78 321.05,182.89 322.79,182.99 324.53,183.09 326.26,183.19 328,183.29 329.74,183.39" fill="none" stroke="#7d3c98" stroke-width="2.2"/>
<circle cx="70.95" cy="59.68" r="4.2" fill="#7d3c98"/>
<circle cx="105.68" cy="129.84" r="4.2" fill="#7d3c98"/>
<circle cx="175.16" cy="164.92" r="4.2" fill="#7d3c98"/>
<circle cx="314.11" cy="182.46" r="4.2" fill="#7d3c98"/>
<text x="115.68" y="120.15" font-size="10.5" text-anchor="start" fill="#7d3c98">hardness exponent 1/(200p)</text>
</g>
<text x="460" y="270" font-size="11" text-anchor="middle" fill="#333">Corollary 16: n&#8201;<tspan baseline-shift="super" font-size="75%">1/(200p)</tspan>-hardness for every fixed rational p &#8805; 1</text>
</svg>